<?xml version="1.0" standalone="no"?>
<!DOCTYPE svg PUBLIC "-//W3C//DTD SVG 20010904//EN"
 "http://www.w3.org/TR/2001/REC-SVG-20010904/DTD/svg10.dtd">
<svg version="1.0" xmlns="http://www.w3.org/2000/svg"
 width="287.000000pt" height="296.000000pt" viewBox="0 0 287.000000 296.000000"
 preserveAspectRatio="xMidYMid meet">

<g transform="translate(0.000000,296.000000) scale(0.100000,-0.100000)"
fill="#000000" stroke="none">
<path d="M1108 2614 c-72 -15 -129 -34 -175 -58 l-67 -36 -26 24 c-38 36 -64
46 -115 46 -53 0 -88 -16 -130 -59 -24 -27 -30 -41 -33 -95 -4 -59 -2 -65 28
-99 l32 -37 -22 -30 c-71 -99 -120 -280 -120 -443 0 -256 96 -435 277 -519 38
-17 69 -32 71 -33 1 -1 -16 -21 -39 -46 -60 -65 -113 -178 -113 -244 -1 -48 3
-58 34 -90 19 -20 47 -43 62 -51 42 -22 29 -74 -36 -145 -28 -30 -64 -79 -79
-107 -27 -50 -28 -55 -17 -105 7 -29 25 -77 40 -108 l27 -56 -24 -23 c-29 -28
-27 -60 7 -77 46 -23 272 -5 301 24 6 6 12 42 13 80 l1 68 40 6 c22 4 87 17
144 29 73 15 119 20 150 15 26 -3 75 -10 111 -15 36 -5 81 -12 100 -15 19 -3
65 -8 103 -12 l67 -6 0 -69 0 -69 38 -16 c21 -9 80 -18 138 -21 140 -7 170 13
125 82 -19 28 -19 29 10 89 16 34 34 85 40 113 10 45 10 57 -4 77 -22 33 -142
123 -194 144 -24 10 -43 20 -43 23 1 3 21 17 46 32 28 18 50 40 59 62 8 19 24
38 36 41 18 6 20 12 14 48 -9 54 -11 57 -40 57 -18 0 -25 7 -30 33 -15 75 -58
189 -74 194 -23 9 -41 41 -23 44 38 7 152 43 181 58 54 28 118 98 136 149 19
57 19 123 1 188 -8 28 -16 118 -19 209 -6 187 -25 274 -87 397 -38 76 -39 81
-25 108 50 97 -37 229 -151 230 -23 0 -61 -10 -88 -24 l-47 -24 -60 23 c-159
63 -365 77 -551 39z m417 -39 c118 -26 171 -48 166 -71 -2 -10 -4 -40 -5 -66
-1 -38 5 -53 30 -85 60 -74 144 -101 208 -68 15 8 32 15 37 15 13 0 65 -118
89 -200 17 -59 23 -110 26 -239 2 -91 9 -181 14 -200 5 -20 10 -66 10 -102 0
-125 -66 -197 -221 -239 -87 -23 -108 -23 -234 3 -276 57 -493 60 -710 9 -38
-9 -78 -15 -88 -13 -42 6 -131 56 -182 102 -108 99 -153 240 -142 444 8 136
27 215 79 325 34 70 56 100 132 175 79 79 105 98 196 142 99 49 198 77 300 85
77 6 229 -2 295 -17z m-428 -1382 c48 -53 104 -114 123 -135 34 -38 39 -40
150 -58 63 -11 167 -28 230 -39 63 -12 133 -19 155 -16 181 19 192 19 198 -6
8 -30 6 -31 -56 -40 -106 -15 -222 -9 -402 21 -223 38 -220 37 -218 24 1 -6 3
-56 4 -110 1 -54 4 -105 6 -111 6 -16 95 -17 328 -3 l170 11 81 -40 c44 -22
102 -60 128 -85 55 -51 55 -56 9 -179 -28 -77 -42 -87 -147 -111 -100 -24 -96
-26 -96 49 l0 65 -32 0 c-18 0 -89 9 -158 21 -69 11 -138 21 -155 23 -16 1
-50 5 -75 9 -26 5 -66 3 -95 -3 -27 -6 -63 -13 -80 -16 -104 -17 -191 -37
-201 -45 -8 -7 -10 -30 -7 -70 l6 -60 -59 7 c-32 4 -67 11 -76 15 -9 5 -28 9
-42 9 -17 0 -33 11 -49 33 -31 43 -67 132 -67 169 0 37 56 122 116 177 38 36
49 41 77 36 17 -3 45 -7 61 -10 16 -2 89 -7 162 -11 l134 -7 0 60 c0 33 -3 94
-6 136 -7 76 -8 78 -67 149 -34 40 -92 107 -130 148 -73 78 -73 81 -15 89 4 1
46 -43 95 -96z"/>
<path d="M1229 989 c6 -18 21 -28 21 -14 0 3 0 9 0 14 0 5 -7 11 -14 14 -11 5
-13 1 -7 -14z"/>
</g>
</svg>
